<svg id="f16ab933-97dc-4172-aa0b-54974201819c" data-name="svg2" xmlns="http://www.w3.org/2000/svg" width="64.35" height="28.8" viewBox="0 0 64.35 28.8"><defs><style>.b458dc2d-532d-4e38-b8a6-ef79bcea0f5b,.beff2611-ce1d-4ea4-86c9-4a29def020e7,.fcd63348-250f-4e13-b506-b93f00519df3{fill:none;}.fcd63348-250f-4e13-b506-b93f00519df3{stroke:#000;stroke-width:0.9px;}.b458dc2d-532d-4e38-b8a6-ef79bcea0f5b,.fcd63348-250f-4e13-b506-b93f00519df3{stroke-linecap:round;stroke-linejoin:round;}.b458dc2d-532d-4e38-b8a6-ef79bcea0f5b{stroke:#787878;stroke-width:0.7px;}.a7ebfac8-7a31-4095-a537-f7f7c248f5d6{isolation:isolate;}.afdd49e3-5e1f-4938-993a-be01324a2584{fill:#8c8c8c;}</style></defs><g id="a38d56e7-3f4d-412b-827b-d582161947f3" data-name="schematic"><rect id="f99f8689-9541-4943-84f9-621cf5b73e7a" data-name="rect7" class="fcd63348-250f-4e13-b506-b93f00519df3" x="14.4" y="0.45" width="35.55" height="27.9"/><line id="b01d1573-e920-4747-a990-4ab24ddc83cf" data-name="line10" class="b458dc2d-532d-4e38-b8a6-ef79bcea0f5b" x1="0.35" y1="4.39" x2="14.4" y2="4.39"/><rect id="ef37de07-37fc-41ab-8c2f-a3974df9e790" data-name="connector0pin" class="beff2611-ce1d-4ea4-86c9-4a29def020e7" y="4.04" width="14.4" height="0.7"/><rect id="bad8a3e8-45bf-4488-b01d-d3a5aa340277" data-name="connector0terminal" class="beff2611-ce1d-4ea4-86c9-4a29def020e7" y="4.04" width="0.72" height="0.7"/><g id="a09430d0-5853-4a83-9638-ad0c84248e87" data-name="text15" class="a7ebfac8-7a31-4095-a537-f7f7c248f5d6"><path class="afdd49e3-5e1f-4938-993a-be01324a2584" d="M7.38,3.34H7.17V1.79l0,0,0,0,0,0,0,0-.18.15-.12-.15.47-.36h.18Z"/></g><line id="bf3dd7d2-e226-4214-a515-bdcd04e4f97e" data-name="line17" class="b458dc2d-532d-4e38-b8a6-ef79bcea0f5b" x1="0.35" y1="11.51" x2="14.4" y2="11.51"/><rect id="ac106891-1ea0-49fd-b2ca-506c093ceac6" data-name="connector1pin" class="beff2611-ce1d-4ea4-86c9-4a29def020e7" y="11.16" width="14.4" height="0.7"/><rect id="e50b0319-3799-45e6-9960-e5279c1d112b" data-name="connector1terminal" class="beff2611-ce1d-4ea4-86c9-4a29def020e7" y="11.16" width="0.72" height="0.7"/><g id="e8f900f5-fad0-4413-8d97-dd13f237ecc3" data-name="text22" class="a7ebfac8-7a31-4095-a537-f7f7c248f5d6"><path class="afdd49e3-5e1f-4938-993a-be01324a2584" d="M7.74,10.46H6.63v-.19l.43-.46.16-.18.12-.16a.6.6,0,0,0,.08-.16.47.47,0,0,0,0-.17.51.51,0,0,0,0-.13l-.06-.09-.09-.06-.12,0A.46.46,0,0,0,7,8.89L6.77,9l-.12-.15.1-.08.12-.07.14,0,.15,0a.46.46,0,0,1,.21,0,.35.35,0,0,1,.16.09.42.42,0,0,1,.11.15.68.68,0,0,1,0,.4.76.76,0,0,1-.09.18,1.82,1.82,0,0,1-.14.19l-.17.19-.34.36h.84Z"/></g><line id="f9fb85b8-cc70-4644-9593-149f0c3bcacf" data-name="line24" class="b458dc2d-532d-4e38-b8a6-ef79bcea0f5b" x1="0.35" y1="18.64" x2="14.4" y2="18.64"/><rect id="f15dd7d0-87b9-4172-9be5-d7db58e992ce" data-name="connector2pin" class="beff2611-ce1d-4ea4-86c9-4a29def020e7" y="18.29" width="14.4" height="0.7"/><rect id="b2cf08e8-b725-4fa8-9f1c-80d2f368906b" data-name="connector2terminal" class="beff2611-ce1d-4ea4-86c9-4a29def020e7" y="18.29" width="0.72" height="0.7"/><g id="b520b879-ac9f-4cb0-bf29-b56e7a0db39c" data-name="text29" class="a7ebfac8-7a31-4095-a537-f7f7c248f5d6"><path class="afdd49e3-5e1f-4938-993a-be01324a2584" d="M7.68,16.22a.41.41,0,0,1,0,.16.57.57,0,0,1-.08.13l-.12.09-.16,0h0a.63.63,0,0,1,.33.14.42.42,0,0,1,.11.29.46.46,0,0,1,0,.21.49.49,0,0,1-.32.28.91.91,0,0,1-.3,0l-.25,0a.58.58,0,0,1-.22-.08v-.2l.23.08a.66.66,0,0,0,.24,0,.55.55,0,0,0,.19,0,.46.46,0,0,0,.14-.07.44.44,0,0,0,.08-.11.61.61,0,0,0,0-.15.32.32,0,0,0,0-.14.28.28,0,0,0-.09-.1.53.53,0,0,0-.15,0,.58.58,0,0,0-.19,0H6.88v-.19h.17l.17,0a.4.4,0,0,0,.13-.07.28.28,0,0,0,.08-.11.32.32,0,0,0,0-.14.2.2,0,0,0,0-.11A.16.16,0,0,0,7.37,16s-.06,0-.09-.06l-.13,0a.56.56,0,0,0-.23.05.69.69,0,0,0-.19.1L6.62,16l.1-.07.13-.06.14,0h.16a.75.75,0,0,1,.23,0,.46.46,0,0,1,.17.09.45.45,0,0,1,.1.14A.57.57,0,0,1,7.68,16.22Z"/></g><g id="ae5409fd-c3fc-4c63-900b-500c2c0eeb21" data-name="text3369" class="a7ebfac8-7a31-4095-a537-f7f7c248f5d6"><path d="M32.47,6.48a.72.72,0,0,0-.33.07.69.69,0,0,0-.25.2.83.83,0,0,0-.16.31,1.44,1.44,0,0,0-.06.43,1.34,1.34,0,0,0,0,.42.79.79,0,0,0,.15.32.67.67,0,0,0,.25.19.78.78,0,0,0,.35.07,1.36,1.36,0,0,0,.29,0L33,8.39v.28l-.13,0-.14,0h-.34a1.22,1.22,0,0,1-.49-.09.85.85,0,0,1-.33-.26A1.12,1.12,0,0,1,31.4,8a1.79,1.79,0,0,1-.07-.53A1.72,1.72,0,0,1,31.41,7a1.27,1.27,0,0,1,.21-.4A1.07,1.07,0,0,1,32,6.29a1.26,1.26,0,0,1,.49-.09,1.42,1.42,0,0,1,.36,0,1,1,0,0,1,.3.11L33,6.61l-.23-.09A.85.85,0,0,0,32.47,6.48Z"/><path d="M35.25,8.73h-.36l-.77-1.19-.23.2v1h-.32V6.24h.32V7.49l.2-.29.78-1h.35l-.89,1.08Z"/><path d="M35.4,7.94V7.65h.84v.29Z"/><path d="M38.15,7.48a2.92,2.92,0,0,1,0,.54,1.16,1.16,0,0,1-.14.41.67.67,0,0,1-.25.25.7.7,0,0,1-.37.09A.68.68,0,0,1,37,8.68a.64.64,0,0,1-.24-.25A1.17,1.17,0,0,1,36.6,8a2.92,2.92,0,0,1-.05-.54,3,3,0,0,1,0-.54,1.34,1.34,0,0,1,.14-.4A.69.69,0,0,1,37,6.28a.85.85,0,0,1,.72,0,.75.75,0,0,1,.25.25,1.77,1.77,0,0,1,.15.41A2.92,2.92,0,0,1,38.15,7.48Zm-1.28,0a3.1,3.1,0,0,0,0,.45,1.86,1.86,0,0,0,.08.32.49.49,0,0,0,.15.19.4.4,0,0,0,.22.06.41.41,0,0,0,.23-.06.42.42,0,0,0,.15-.19.88.88,0,0,0,.08-.32,3.39,3.39,0,0,0,0-.9.88.88,0,0,0-.08-.31.42.42,0,0,0-.15-.19.35.35,0,0,0-.23-.07.34.34,0,0,0-.22.07.42.42,0,0,0-.15.19,1.73,1.73,0,0,0-.08.31A3.1,3.1,0,0,0,36.87,7.48Z"/><path d="M38.79,8.73l1-2.21H38.46V6.24h1.61v.24l-1,2.25Z"/></g><g id="add5bc0a-5b0f-4962-b04b-42c59dbf642a" data-name="text3371" class="a7ebfac8-7a31-4095-a537-f7f7c248f5d6"><path class="afdd49e3-5e1f-4938-993a-be01324a2584" d="M34.59,13.42l-.2-.56h-.67l-.2.56h-.23L34,11.61h.21l.66,1.81Zm-.27-.76-.18-.53a.08.08,0,0,1,0-.05l0-.07a.19.19,0,0,1,0-.08l0-.07a.19.19,0,0,1,0,.07A.19.19,0,0,1,34,12a.64.64,0,0,1,0,.07l0,.05-.18.53Z"/><path class="afdd49e3-5e1f-4938-993a-be01324a2584" d="M36.39,12.5a1.25,1.25,0,0,1-.06.4.77.77,0,0,1-.17.29.73.73,0,0,1-.27.17,1.1,1.1,0,0,1-.37.06h-.45v-1.8h.5a1.21,1.21,0,0,1,.34.05.78.78,0,0,1,.26.17.85.85,0,0,1,.16.28A1.08,1.08,0,0,1,36.39,12.5Zm-.24,0a.93.93,0,0,0,0-.31A.66.66,0,0,0,36,12a.43.43,0,0,0-.19-.13,1,1,0,0,0-.26,0h-.25v1.41h.2A.63.63,0,0,0,36,13,.77.77,0,0,0,36.15,12.51Z"/><path class="afdd49e3-5e1f-4938-993a-be01324a2584" d="M37.52,11.79a.6.6,0,0,0-.24.05.52.52,0,0,0-.18.15.66.66,0,0,0-.12.22,1.37,1.37,0,0,0,0,.31,1,1,0,0,0,0,.3.55.55,0,0,0,.11.23.49.49,0,0,0,.18.14.62.62,0,0,0,.25.05l.21,0,.19-.05v.2l-.09,0-.1,0-.11,0h-.14a.78.78,0,0,1-.35-.07.61.61,0,0,1-.24-.18.92.92,0,0,1-.14-.3,1.13,1.13,0,0,1,0-.38,1.44,1.44,0,0,1,0-.37.9.9,0,0,1,.16-.29.7.7,0,0,1,.26-.19.78.78,0,0,1,.35-.07,1,1,0,0,1,.25,0,.63.63,0,0,1,.22.08l-.09.19-.17-.07A.66.66,0,0,0,37.52,11.79Z"/></g><g id="bb2a0456-0996-431f-8ac7-97e3c853bfaf" data-name="text3373" class="a7ebfac8-7a31-4095-a537-f7f7c248f5d6"><path class="afdd49e3-5e1f-4938-993a-be01324a2584" d="M34.83,16.35h-.3v1.18h-.22V16.35h-.24v-.1l.24-.08v-.12a1.27,1.27,0,0,1,0-.22.3.3,0,0,1,.09-.13.25.25,0,0,1,.12-.08l.18,0,.13,0a.2.2,0,0,1,.11,0l-.06.17-.08,0h-.18a.07.07,0,0,0-.06,0,.15.15,0,0,0,0,.08s0,.08,0,.13v.13h.3Z"/><path class="afdd49e3-5e1f-4938-993a-be01324a2584" d="M36.18,16.85a1.36,1.36,0,0,1,0,.3.66.66,0,0,1-.12.22.52.52,0,0,1-.19.14.74.74,0,0,1-.48,0,.49.49,0,0,1-.18-.14.54.54,0,0,1-.13-.22,1.36,1.36,0,0,1,0-.3,1,1,0,0,1,0-.3.78.78,0,0,1,.12-.22.53.53,0,0,1,.19-.13.6.6,0,0,1,.48,0,.59.59,0,0,1,.18.13.78.78,0,0,1,.12.22A.94.94,0,0,1,36.18,16.85Zm-1,0a.7.7,0,0,0,.09.39.35.35,0,0,0,.54,0,.7.7,0,0,0,.09-.39.64.64,0,0,0-.09-.38.29.29,0,0,0-.27-.13.28.28,0,0,0-.27.13A.64.64,0,0,0,35.23,16.85Z"/><path class="afdd49e3-5e1f-4938-993a-be01324a2584" d="M37.12,16.15h.15l0,.2H37.1a.32.32,0,0,0-.14,0,.31.31,0,0,0-.11.09.46.46,0,0,0-.07.14.48.48,0,0,0,0,.18v.73h-.22V16.18h.18l0,.25h0l.07-.11.07-.08a.27.27,0,0,1,.1-.06A.28.28,0,0,1,37.12,16.15Z"/></g><g id="a66e1cff-b212-4379-9671-5222374277a0" data-name="text3375" class="a7ebfac8-7a31-4095-a537-f7f7c248f5d6"><path class="afdd49e3-5e1f-4938-993a-be01324a2584" d="M32.43,21.33a.51.51,0,0,1,0,.22.61.61,0,0,1-.12.16.85.85,0,0,1-.19.1,1,1,0,0,1-.26,0l-.25,0-.2-.06v-.22l.09,0,.12,0,.12,0h.12a.46.46,0,0,0,.29-.07.24.24,0,0,0,.1-.21.37.37,0,0,0,0-.12.24.24,0,0,0-.06-.09L32,21.07,31.82,21a.67.67,0,0,1-.19-.1.53.53,0,0,1-.14-.11.41.41,0,0,1-.07-.15.48.48,0,0,1,0-.18.59.59,0,0,1,0-.2.49.49,0,0,1,.11-.14.56.56,0,0,1,.17-.09.78.78,0,0,1,.22,0,1,1,0,0,1,.26,0,1,1,0,0,1,.21.07l-.08.19-.18-.06a.76.76,0,0,0-.21,0,.37.37,0,0,0-.23.07.23.23,0,0,0-.09.19.37.37,0,0,0,0,.12.2.2,0,0,0,.06.09.36.36,0,0,0,.12.08.91.91,0,0,0,.17.08l.2.09.14.1a.39.39,0,0,1,.08.14A.48.48,0,0,1,32.43,21.33Z"/><path class="afdd49e3-5e1f-4938-993a-be01324a2584" d="M33.3,21.84a.51.51,0,0,1-.25-.05.43.43,0,0,1-.19-.13.57.57,0,0,1-.13-.21,1.14,1.14,0,0,1,0-.6.51.51,0,0,1,.11-.22.49.49,0,0,1,.18-.14.56.56,0,0,1,.23,0,.65.65,0,0,1,.21,0,.43.43,0,0,1,.17.13.49.49,0,0,1,.1.19.61.61,0,0,1,0,.24v.14h-.85a.54.54,0,0,0,.1.35.33.33,0,0,0,.28.11h.12l.1,0,.1,0,.09,0v.2l-.1,0-.09,0-.11,0Zm-.06-1.21a.28.28,0,0,0-.22.09.47.47,0,0,0-.1.28h.61a.68.68,0,0,0,0-.15.33.33,0,0,0,0-.12.24.24,0,0,0-.09-.08A.25.25,0,0,0,33.24,20.63Z"/><path class="afdd49e3-5e1f-4938-993a-be01324a2584" d="M35,21.82V21a.38.38,0,0,0-.07-.24.22.22,0,0,0-.2-.08.43.43,0,0,0-.17,0,.31.31,0,0,0-.11.09.59.59,0,0,0-.06.16,1.25,1.25,0,0,0,0,.21v.7h-.22V20.46h.18l0,.19h0a.36.36,0,0,1,.07-.1l.09-.06.11,0h.12a.45.45,0,0,1,.34.12.54.54,0,0,1,.11.37v.89Z"/><path class="afdd49e3-5e1f-4938-993a-be01324a2584" d="M36.4,21.45a.47.47,0,0,1,0,.17.4.4,0,0,1-.1.12.45.45,0,0,1-.17.08l-.21,0-.23,0-.17-.06v-.21l.09,0,.09,0,.11,0h.11l.14,0,.09,0a.18.18,0,0,0,.05-.07.19.19,0,0,0,0-.08.17.17,0,0,0,0-.07l0-.06L36,21.27l-.15-.07-.16-.07L35.61,21a.26.26,0,0,1-.07-.1.32.32,0,0,1,0-.14.41.41,0,0,1,0-.16.4.4,0,0,1,.25-.18l.19,0a.78.78,0,0,1,.22,0l.19.06-.08.18-.17-.06a.47.47,0,0,0-.17,0,.3.3,0,0,0-.18,0,.13.13,0,0,0-.06.12.17.17,0,0,0,0,.07l0,.06.09.06L36,21l.15.08a.36.36,0,0,1,.12.08.25.25,0,0,1,.08.1A.61.61,0,0,1,36.4,21.45Z"/><path class="afdd49e3-5e1f-4938-993a-be01324a2584" d="M37.83,21.14a1,1,0,0,1,0,.3.52.52,0,0,1-.12.22.46.46,0,0,1-.18.13.7.7,0,0,1-.25.05.59.59,0,0,1-.23-.05.5.5,0,0,1-.19-.13.66.66,0,0,1-.12-.22,1.14,1.14,0,0,1,0-.6.52.52,0,0,1,.12-.22.46.46,0,0,1,.18-.13.7.7,0,0,1,.25,0,.59.59,0,0,1,.23,0,.5.5,0,0,1,.19.13.66.66,0,0,1,.12.22A1,1,0,0,1,37.83,21.14Zm-.94,0a.81.81,0,0,0,.08.39.32.32,0,0,0,.28.12.32.32,0,0,0,.27-.12,1,1,0,0,0,0-.78.32.32,0,0,0-.28-.12.32.32,0,0,0-.27.12A.81.81,0,0,0,36.89,21.14Z"/><path class="afdd49e3-5e1f-4938-993a-be01324a2584" d="M38.77,20.44h.16l0,.21h-.14a.23.23,0,0,0-.14,0,.24.24,0,0,0-.11.09.26.26,0,0,0-.07.14.48.48,0,0,0,0,.18v.73h-.22V20.46h.18l0,.25h0l.06-.1.08-.09.1-.06Z"/><path class="afdd49e3-5e1f-4938-993a-be01324a2584" d="M40,21.45a.33.33,0,0,1,0,.17.23.23,0,0,1-.1.12.4.4,0,0,1-.16.08l-.21,0-.23,0-.17-.06v-.21l.08,0,.1,0,.11,0h.11l.13,0,.09,0a.2.2,0,0,0,.06-.07.19.19,0,0,0,0-.08.17.17,0,0,0,0-.07.13.13,0,0,0-.05-.06l-.09-.06-.14-.07-.16-.07a.38.38,0,0,1-.12-.09.27.27,0,0,1-.08-.1.59.59,0,0,1,0-.14.41.41,0,0,1,0-.16.52.52,0,0,1,.1-.11.61.61,0,0,1,.14-.07l.2,0a.78.78,0,0,1,.22,0,1.27,1.27,0,0,1,.18.06l-.07.18-.17-.06a.47.47,0,0,0-.17,0,.34.34,0,0,0-.19,0,.13.13,0,0,0-.06.12.19.19,0,0,0,0,.07.13.13,0,0,0,0,.06l.09.06.14.06.16.08a.36.36,0,0,1,.12.08.23.23,0,0,1,.07.1A.33.33,0,0,1,40,21.45Z"/></g><g id="b1c19f42-3450-40c1-8375-2a9a7625b86f" data-name="label0" class="a7ebfac8-7a31-4095-a537-f7f7c248f5d6"><path class="afdd49e3-5e1f-4938-993a-be01324a2584" d="M17.6,4.74,17.33,4H16.4l-.28.77H15.8l.92-2.51H17l.92,2.51Zm-.37-1.06L17,3l0-.08,0-.09,0-.11,0-.11,0,.11,0,.11,0,.1,0,.07-.25.72Z"/><path class="afdd49e3-5e1f-4938-993a-be01324a2584" d="M20.27,3.49a2.12,2.12,0,0,1-.06.52,1.22,1.22,0,0,1-.21.41,1,1,0,0,1-.34.26,1.16,1.16,0,0,1-.47.09,1.21,1.21,0,0,1-.48-.09.88.88,0,0,1-.34-.26,1.21,1.21,0,0,1-.2-.41,2.15,2.15,0,0,1-.06-.53A2.06,2.06,0,0,1,18.17,3a1.21,1.21,0,0,1,.2-.41,1,1,0,0,1,.34-.26,1.22,1.22,0,0,1,.49-.09,1.11,1.11,0,0,1,.46.09.88.88,0,0,1,.34.26,1.32,1.32,0,0,1,.21.41A2.15,2.15,0,0,1,20.27,3.49Zm-1.83,0a1.86,1.86,0,0,0,0,.42,1,1,0,0,0,.13.32.78.78,0,0,0,.24.2.81.81,0,0,0,.33.07.89.89,0,0,0,.34-.07.74.74,0,0,0,.23-.2.83.83,0,0,0,.13-.32,1.86,1.86,0,0,0,.05-.42,1.88,1.88,0,0,0-.05-.43.79.79,0,0,0-.13-.31.63.63,0,0,0-.23-.2.81.81,0,0,0-.33-.07.86.86,0,0,0-.34.07.66.66,0,0,0-.24.2,1,1,0,0,0-.13.31A1.88,1.88,0,0,0,18.44,3.49Z"/></g><g id="a6ae1b6f-c2d3-4baa-a18a-e4ea82fc1947" data-name="label1" class="a7ebfac8-7a31-4095-a537-f7f7c248f5d6"><path class="afdd49e3-5e1f-4938-993a-be01324a2584" d="M17.14,17.67H18v1.22l-.19.06-.19,0-.22,0h-.24a1.19,1.19,0,0,1-.47-.09,1,1,0,0,1-.35-.25,1.14,1.14,0,0,1-.21-.41,1.83,1.83,0,0,1,0-1.07,1.22,1.22,0,0,1,.24-.4,1,1,0,0,1,.38-.26,1.46,1.46,0,0,1,.52-.09,2.21,2.21,0,0,1,.37,0,1.73,1.73,0,0,1,.32.11l-.12.28-.13-.06-.15,0a.4.4,0,0,0-.15,0l-.16,0a1.06,1.06,0,0,0-.37.07.79.79,0,0,0-.27.2.8.8,0,0,0-.16.32,1.33,1.33,0,0,0-.06.42,1.25,1.25,0,0,0,0,.4.79.79,0,0,0,.15.32.61.61,0,0,0,.26.21.94.94,0,0,0,.39.07h.26l.09,0,.1,0V18h-.51Z"/><path class="afdd49e3-5e1f-4938-993a-be01324a2584" d="M20.43,19h-.37l-1.23-2.07h0c0,.09,0,.17,0,.26a1.69,1.69,0,0,1,0,.23,1.77,1.77,0,0,1,0,.22V19h-.3v-2.5h.37l1.22,2.06h0a2.17,2.17,0,0,0,0-.26v-1.8h.3Z"/><path class="afdd49e3-5e1f-4938-993a-be01324a2584" d="M23,17.71a1.6,1.6,0,0,1-.09.56,1.05,1.05,0,0,1-.23.4,1.17,1.17,0,0,1-.39.24,1.6,1.6,0,0,1-.51.08H21.1v-2.5h.7a1.36,1.36,0,0,1,.47.08.83.83,0,0,1,.36.23,1,1,0,0,1,.23.38A1.47,1.47,0,0,1,23,17.71Zm-.34,0a1.4,1.4,0,0,0-.06-.43.72.72,0,0,0-.16-.3.62.62,0,0,0-.27-.17,1,1,0,0,0-.35-.06h-.35v1.95h.28a.86.86,0,0,0,.68-.25A1.06,1.06,0,0,0,22.61,17.72Z"/></g><g id="e3e0782d-57e4-4f6f-8ae4-c06948bd3164" data-name="label2" class="a7ebfac8-7a31-4095-a537-f7f7c248f5d6"><path class="afdd49e3-5e1f-4938-993a-be01324a2584" d="M17.45,23.61h.34L17,26.11h-.32l-.83-2.5h.34l.5,1.59.09.3.06.27a2.68,2.68,0,0,1,.07-.27,2.12,2.12,0,0,1,.09-.31Z"/><path class="afdd49e3-5e1f-4938-993a-be01324a2584" d="M19.07,23.86a.72.72,0,0,0-.33.07.67.67,0,0,0-.25.19,1.09,1.09,0,0,0-.17.32,1.86,1.86,0,0,0-.05.42,1.41,1.41,0,0,0,.05.43.79.79,0,0,0,.15.32.67.67,0,0,0,.25.19,1,1,0,0,0,.35.07,1.36,1.36,0,0,0,.29,0l.27-.07V26l-.13.05-.14,0-.16,0H19a1.22,1.22,0,0,1-.49-.1,1,1,0,0,1-.34-.26,1.2,1.2,0,0,1-.19-.41,1.68,1.68,0,0,1-.07-.52,1.72,1.72,0,0,1,.08-.52,1.14,1.14,0,0,1,.21-.41,1,1,0,0,1,.36-.26,1.26,1.26,0,0,1,.49-.09,1.9,1.9,0,0,1,.35,0,1.85,1.85,0,0,1,.31.11l-.14.27a.92.92,0,0,0-.23-.09A.85.85,0,0,0,19.07,23.86Z"/><path class="afdd49e3-5e1f-4938-993a-be01324a2584" d="M21.11,23.86a.72.72,0,0,0-.33.07.67.67,0,0,0-.25.19.88.88,0,0,0-.16.32,1.67,1.67,0,0,0,0,.85.79.79,0,0,0,.15.32.67.67,0,0,0,.25.19,1,1,0,0,0,.35.07,1.36,1.36,0,0,0,.29,0l.27-.07V26l-.13.05-.14,0-.16,0h-.18a1.22,1.22,0,0,1-.49-.1.85.85,0,0,1-.33-.26,1,1,0,0,1-.2-.41,1.68,1.68,0,0,1-.07-.52,1.72,1.72,0,0,1,.08-.52,1.32,1.32,0,0,1,.21-.41,1,1,0,0,1,.36-.26,1.3,1.3,0,0,1,.49-.09,1.9,1.9,0,0,1,.35,0,1.85,1.85,0,0,1,.31.11l-.14.27a.92.92,0,0,0-.23-.09A.85.85,0,0,0,21.11,23.86Z"/></g><g id="aceb4364-864c-495a-97db-e1b1ceb9ca2b" data-name="label0" class="a7ebfac8-7a31-4095-a537-f7f7c248f5d6"><path class="afdd49e3-5e1f-4938-993a-be01324a2584" d="M18,10.59a1.89,1.89,0,0,1-.08.56,1.17,1.17,0,0,1-.24.39.88.88,0,0,1-.38.24,1.39,1.39,0,0,1-.52.08h-.62V9.37h.69a1.43,1.43,0,0,1,.48.07,1,1,0,0,1,.36.24,1.1,1.1,0,0,1,.23.38A1.69,1.69,0,0,1,18,10.59Zm-.34,0a1.75,1.75,0,0,0-.05-.43.87.87,0,0,0-.17-.3.68.68,0,0,0-.26-.18,1.36,1.36,0,0,0-.36,0h-.34v1.95h.27a.86.86,0,0,0,.68-.25A1,1,0,0,0,17.64,10.6Z"/><path class="afdd49e3-5e1f-4938-993a-be01324a2584" d="M20.57,10.61a1.79,1.79,0,0,1-.07.53,1,1,0,0,1-.2.4,1,1,0,0,1-.34.27,1.16,1.16,0,0,1-.47.09,1.21,1.21,0,0,1-.48-.09.91.91,0,0,1-.34-.27,1.16,1.16,0,0,1-.2-.4,2.2,2.2,0,0,1-.06-.53,2.15,2.15,0,0,1,.06-.53,1.16,1.16,0,0,1,.2-.4A.86.86,0,0,1,19,9.42a1.22,1.22,0,0,1,.49-.09,1.11,1.11,0,0,1,.46.09.8.8,0,0,1,.34.26,1,1,0,0,1,.2.4A1.79,1.79,0,0,1,20.57,10.61Zm-1.83,0a1.73,1.73,0,0,0,.05.42.93.93,0,0,0,.13.32.59.59,0,0,0,.24.2.67.67,0,0,0,.33.07.74.74,0,0,0,.34-.07.63.63,0,0,0,.23-.2.77.77,0,0,0,.13-.32,1.79,1.79,0,0,0,0-.84.77.77,0,0,0-.13-.32.6.6,0,0,0-.23-.19.67.67,0,0,0-.33-.07.71.71,0,0,0-.34.07.63.63,0,0,0-.24.19.93.93,0,0,0-.13.32A1.73,1.73,0,0,0,18.74,10.61Z"/></g><line id="adf5d890-155f-404a-9e67-1785561e152c" data-name="line24" class="b458dc2d-532d-4e38-b8a6-ef79bcea0f5b" x1="0.35" y1="25.76" x2="14.4" y2="25.76"/><rect id="a1dbe72d-b57f-49ec-9bfc-acf73c5e4a1c" data-name="connector3pin" class="beff2611-ce1d-4ea4-86c9-4a29def020e7" y="25.41" width="14.4" height="0.7"/><rect id="b0c689d5-630c-475e-91a3-1d2abb694123" data-name="connector3terminal" class="beff2611-ce1d-4ea4-86c9-4a29def020e7" y="25.41" width="0.72" height="0.7"/><g id="ec590fde-1c2c-42c2-bcbb-98ebbe487f7e" data-name="text29" class="a7ebfac8-7a31-4095-a537-f7f7c248f5d6"><path class="afdd49e3-5e1f-4938-993a-be01324a2584" d="M7.84,24.31H7.58v.4H7.36v-.4H6.54v-.19l.81-1.2h.23v1.19h.26Zm-.48-.2v-.44a.71.71,0,0,1,0-.14v-.15a.57.57,0,0,1,0-.13v-.1h0s0,0,0,.05l0,.06,0,.06,0,.05-.5.74Z"/></g><line id="fc509290-4d0f-4126-9885-ac688ff2ed5c" data-name="line24" class="b458dc2d-532d-4e38-b8a6-ef79bcea0f5b" x1="64" y1="11.51" x2="49.95" y2="11.51"/><rect id="aa939646-d0d2-47c7-b6f0-37eed2cf1230" data-name="connector4pin" class="beff2611-ce1d-4ea4-86c9-4a29def020e7" x="49.95" y="11.16" width="14.4" height="0.7"/><rect id="e63ae6f3-1b5a-4aaa-af15-18c9b8322af2" data-name="connector4terminal" class="beff2611-ce1d-4ea4-86c9-4a29def020e7" x="63.63" y="11.16" width="0.72" height="0.7"/><g id="a97e6b22-0867-4ffd-8713-17029bcc7b87" data-name="text29" class="a7ebfac8-7a31-4095-a537-f7f7c248f5d6"><path class="afdd49e3-5e1f-4938-993a-be01324a2584" d="M57,9.37a.85.85,0,0,1,.23,0,.46.46,0,0,1,.3.27.51.51,0,0,1,0,.22.66.66,0,0,1,0,.25.52.52,0,0,1-.12.19.67.67,0,0,1-.2.12,1.18,1.18,0,0,1-.28,0h-.12l-.12,0a.17.17,0,0,1-.1,0,.19.19,0,0,1-.09,0v-.21a.19.19,0,0,0,.09.05l.11,0,.12,0h.12l.17,0,.13-.07.08-.12a.47.47,0,0,0,0-.17.34.34,0,0,0-.11-.27.48.48,0,0,0-.31-.09h-.29l-.11-.07.07-.84h.84v.2h-.65l0,.51H57Z"/></g><line id="e9e38f79-7363-4bf2-b3cb-e4776e64f1a5" data-name="line24" class="b458dc2d-532d-4e38-b8a6-ef79bcea0f5b" x1="64" y1="18.64" x2="49.95" y2="18.64"/><rect id="f4380449-cf36-4338-8a26-5a585e4468e2" data-name="connector5pin" class="beff2611-ce1d-4ea4-86c9-4a29def020e7" x="49.95" y="18.29" width="14.4" height="0.7"/><rect id="f238f2f4-99b3-4717-97cc-803bf40f70c7" data-name="connector5terminal" class="beff2611-ce1d-4ea4-86c9-4a29def020e7" x="63.63" y="18.29" width="0.72" height="0.7"/><g id="ffeb8fd1-dd18-4aa5-a3ac-c91aa39ec956" data-name="text29" class="a7ebfac8-7a31-4095-a537-f7f7c248f5d6"><path class="afdd49e3-5e1f-4938-993a-be01324a2584" d="M56.42,16.82a2.11,2.11,0,0,1,0-.25,1.5,1.5,0,0,1,0-.24.85.85,0,0,1,.09-.22.61.61,0,0,1,.14-.17.72.72,0,0,1,.21-.12.82.82,0,0,1,.28,0h.21V16l-.09,0h-.11A.54.54,0,0,0,57,16a.35.35,0,0,0-.15.07.52.52,0,0,0-.1.11,1.13,1.13,0,0,0-.1.32,1.11,1.11,0,0,0,0,.19h0a.22.22,0,0,1,0-.08l.09-.07.1,0,.13,0a.46.46,0,0,1,.21,0,.44.44,0,0,1,.16.1.48.48,0,0,1,.1.17.59.59,0,0,1,0,.23.62.62,0,0,1,0,.25.4.4,0,0,1-.11.19.52.52,0,0,1-.17.12.54.54,0,0,1-.22,0,.43.43,0,0,1-.23-.05.52.52,0,0,1-.19-.14.83.83,0,0,1-.12-.25A1.13,1.13,0,0,1,56.42,16.82Zm.58.61a.32.32,0,0,0,.14,0,.25.25,0,0,0,.1-.08.35.35,0,0,0,.07-.12.58.58,0,0,0,0-.19.36.36,0,0,0,0-.15.27.27,0,0,0-.06-.12.26.26,0,0,0-.1-.07.32.32,0,0,0-.14,0,.4.4,0,0,0-.15,0l-.11.08a.25.25,0,0,0-.1.22.44.44,0,0,0,0,.16.35.35,0,0,0,.07.15.27.27,0,0,0,.11.1A.25.25,0,0,0,57,17.43Z"/></g></g></svg>